<?xml version="1.0" encoding="UTF-8"?>
<svg id="Layer_2" data-name="Layer 2" xmlns="http://www.w3.org/2000/svg" viewBox="0 0 1185.02 112">
  <defs>
    <style>
      .cls-1 {
        fill: #fbb03b;
      }

      .cls-2 {
        fill: none;
        stroke: #000;
        stroke-miterlimit: 10;
      }
    </style>
  </defs>
  <g id="Layer_1-2" data-name="Layer 1">
    <g>
      <g>
        <path class="cls-1" d="M1184.52,44.5V111.5H.52V44.5H1184.52Z"/>
        <path class="cls-1" d="M264.52,44.5H.52c-.11-3.54-.02-15,8-26C17.18,6.63,29.25,3.29,32.52,2.5c59.67-.67,119.33-1.33,179-2,11.25,1.68,18.05,5.84,22,9,15.61,12.47,18.74,34.76,31,35Z"/>
      </g>
      <g>
        <path class="cls-2" d="M.52,44.5c-.11-3.54-.02-15,8-26C17.18,6.63,29.25,3.29,32.52,2.5c59.67-.67,119.33-1.33,179-2,11.25,1.68,18.05,5.84,22,9,15.61,12.47,18.74,34.76,31,35"/>
        <path class="cls-2" d="M.52,44.5V111.5H1184.52V44.5H.52Z"/>
      </g>
    </g>
  </g>
</svg>