<?xml version="1.0" encoding="UTF-8"?>
<svg id="Layer_2" data-name="Layer 2" xmlns="http://www.w3.org/2000/svg" viewBox="0 0 1185.03 112">
  <defs>
    <style>
      .cls-1 {
        fill: #ff8c00;
      }

      .cls-2 {
        fill: none;
        stroke: #000;
        stroke-miterlimit: 10;
      }
    </style>
  </defs>
  <g id="Layer_2-2" data-name="Layer 2">
    <g>
      <path class="cls-1" d="M1184.53,44.5V111.5H.53V44.5c-.13-3.53-.12-14.88,7.73-25.82C16.97,6.56,29.34,3.25,32.53,2.5c59.67-.66,119.34-1.33,179-2,10.92,1.73,17.63,5.81,21.73,9.18,5.87,4.82,6.34,8.18,17,21,6.65,8,59.79,13.03,75,13,286.42,.27,572.85,.55,859.27,.82Z"/>
      <path class="cls-2" d="M.53,111.5V44.5c-.13-3.53-.12-14.88,7.73-25.82C16.97,6.56,29.34,3.25,32.53,2.5c59.67-.66,119.34-1.33,179-2,10.92,1.73,17.63,5.81,21.73,9.18,5.87,4.82,6.34,8.18,17,21,6.65,8,59.79,13.03,75,13,286.42,.27,572.85,.55,859.27,.82V111.5H.53Z"/>
    </g>
  </g>
</svg>